<svg xmlns="http://www.w3.org/2000/svg" viewBox="0 0 288 288"><defs><style>.cls-1{fill:#00b5e2;}</style></defs><g id="Layer_2" data-name="Layer 2"><g id="simple"><path class="cls-1" d="M27.75,136.21c26.74-1,50.23,7.73,71.22,13.94l.93-1.48c3.53-5.6,5.1-8.06,6.93-11,1.22-2.07,2-3.29,2-3.29H123l.49,1q-2,2.2-11.31,17.2l-.61,1a81.08,81.08,0,0,0,21.27,2.55c3.57-.13,22.76-.64,30-12.19l5.37,3.27c-7.25,11.55-21.42,16-37.87,16.58a103.43,103.43,0,0,1-23.6-2.32c-11.88,19.29-29.35,46.17-29.35,48.38s1.6,2.55,3.43,2.55c9.86,0,30.44-20.1,30.44-20.1h0c4.1-6.41,7.76-12.11,10.13-15.84,1.22-2.07,1.95-3.29,1.95-3.29h14.25l.49,1c-1.22,1.34-4.75,7-9.14,14.26,8.53-8.78,17.67-16.08,24-16.08,13.65,0-.52,20.46-.52,25,0,2.8,1.58,3.53,3.41,3.53,3.73,0,7.07-3.3,9.14-5.93,6.73-11.21,13.29-21.6,13.29-21.6h14.26l.48,1c-3.9,4.39-20,31.68-20,35.45,0,2.08.73,2.56,2.56,2.56,9.87,0,22.54-20,22.54-20,6.09-10.11,11.7-19,11.7-19h14.25l.49,1c-3.9,4.39-20,31.68-20,35.45,0,2.08.85,2.56,2.56,2.56,8.08,0,18-13.4,21.38-18.25.25-.37.49-.74.75-1.1l.41-.63,0,0c8.28-11.38,22.53-19.14,35-19.14,4.76,0,8.41,3.17,8.41,7.67,0,10.48-13.64,20.59-22.05,20.59-5.85,0-7.68-3.9-7.8-7.07-2.56,4-4.26,8.17-4.26,11.58,0,6.21,4.38,9.5,10,9.5,14.21,0,27.91-18.91,30.42-22.54A144,144,0,1,0,0,140.69C6.59,138.53,15.66,136.64,27.75,136.21Z"/><path class="cls-1" d="M240.66,231.14c-7.31,0-17.91-4.5-17.91-18.76a28.5,28.5,0,0,1,.24-3.7c-8.35,10.31-20.22,22.46-29.82,22.46-5.61,0-8.53-4.62-8.53-9.86a19.44,19.44,0,0,1,1.09-6c-7.55,8.28-16.57,15.83-24.12,15.83-5.6,0-8.65-4.62-8.65-9.86,0-3.44,1.51-7.82,4.29-13.06a20.28,20.28,0,0,1-10.39,3.07c-7.92,0-11.34-5.12-11.21-10.11.24-8.53,17.58-21.2,11.73-21.2-3.53,0-24.31,16.75-34.55,33.93-4.62,8.41-9.88,15.89-9.88,17.23H87c3-5.27,8.57-14.15,14.47-23.46-10,10.65-24,23.46-33.76,23.46-5.61,0-8.65-4.62-8.65-9.86,0-3.78,1.95-8.9,5.48-15.11,4.33-7.4,18.87-31.08,29.11-47.57-17.36-4-36.76-8.7-60.85-7.84-18.78.67-28.08,7.15-31.81,10.73a144.05,144.05,0,0,0,271.26,48C263.69,219.62,251.52,231.14,240.66,231.14Z"/><path class="cls-1" d="M267.22,179.61c0-1.82-1.58-2.43-2.92-2.43-5.36,0-13.77,6.94-19.37,14.74a13.5,13.5,0,0,0,5.11,1C259.91,192.89,267.22,182.29,267.22,179.61Z"/></g></g></svg>