<?xml version="1.0" encoding="utf-8"?>
<!-- Generator: Adobe Illustrator 25.0.0, SVG Export Plug-In . SVG Version: 6.00 Build 0)  -->
<svg version="1.1"
	 id="Layer_1" xmlns:cc="http://creativecommons.org/ns#" xmlns:dc="http://purl.org/dc/elements/1.1/" xmlns:rdf="http://www.w3.org/1999/02/22-rdf-syntax-ns#"
	 xmlns="http://www.w3.org/2000/svg" xmlns:xlink="http://www.w3.org/1999/xlink" x="0px" y="0px" viewBox="0 0 896 481.5"
	 style="enable-background:new 0 0 896 481.5;" xml:space="preserve">
<style type="text/css">
	.st0{fill:#FFFFFF;}
	.st1{fill:#FA012D;}
	.st2{fill:#092668;}
</style>
<g>
	<path class="st0" d="M822.9,0H73.1C32.8,0,0,32.7,0,73.1v335.2c0,40.4,32.8,73.2,73.1,73.2h0h749.7c40.4,0,73.1-32.8,73.1-73.2
		V73.1C896,32.7,863.3,0,822.9,0z"/>
	<path class="st1" d="M857.3,38.6L857.3,38.6c-9.2-9.2-21.5-14.3-34.5-14.3H613.2l120.6,201.2l11,1.4l6.4,9.2l0,8.7l7.8,1.4l6.9,9.6
		l0,8.3l7.8,1.4c0,0,7.8,8.3,7.8,8.7c0-0.5,0,18.8,0,18.8s17,15.6,32.2,21.6c10.6,4.1,11.9,21.1,17.9,30.3
		c8.3,12.8,19.3,18.4,17,25.7c-5.5,19.7-25.7,52.8-44.5,54.7c0,0-46.8,0-74.4,0l0,31.8h93c26.9,0,48.8-21.9,48.8-48.8V73.1
		C871.6,60.1,866.5,47.9,857.3,38.6z"/>
	<path class="st2" d="M541.8,24.4L541.8,24.4l-468.6,0c-13,0-25.3,5.1-34.5,14.3c-9.2,9.2-14.3,21.5-14.3,34.5v335.2
		c0,13,5.1,25.3,14.3,34.5c9.2,9.2,21.5,14.3,34.5,14.3h304.4c-7.7-12.7-16.2-27.2-18.9-31.6h-36.3c-0.1-90,30.7-140.1,67-149.7
		c5-0.9,2.7-25.7-3.7-33.1c0,0-17.5,0.5-21.1-0.4c-4.6-1.4-1.4-6-1.4-6l17-36.8l-2.3-10.1l-62.9,0.1c-0.9,0,51.9-36.3,51.9-36.3
		c2.7-95.5,100.5-102.9,159.8-63.5c34.9,23.4,37.7,69.3,35,101.5c-0.5,1.8-9.2,0.5-9.2,0.5s-5.9,34.9,9.7,34.9l68.9,0
		c28-0.9,55.1,17.9,55.1,17.9l6.9-23.9L541.8,24.4z M125.2,388.1L125.2,388.1c-18.5,0-33.5-15-33.5-33.5c0-18.5,15-33.5,33.5-33.5
		c18.5,0,33.5,15,33.5,33.5C158.6,373.1,143.7,388.1,125.2,388.1z"/>
</g>
</svg>
